<svg xmlns="http://www.w3.org/2000/svg" xmlns:xlink="http://www.w3.org/1999/xlink" fill="none" version="1.1" width="62" height="25" viewBox="0 0 62 25"><defs><linearGradient x1="51.374999955296516" y1="10.124999523162842" x2="62" y2="10.75000011920929" gradientUnits="userSpaceOnUse" id="master_svg0_37_07598"><stop offset="39.28571343421936%" stop-color="#4586E1" stop-opacity="1"/><stop offset="100%" stop-color="#B6D4FF" stop-opacity="1"/></linearGradient></defs><g><g><g><path d="M5.256,4.968L5.256,14.268C5.256,14.508,5.16,14.592,4.896,14.592C4.632,14.604,3.744,14.604,2.952,14.568C3.18,14.964,3.444,15.648,3.528,16.055999999999997C4.692,16.067999999999998,5.52,16.02,6.084,15.792C6.624,15.552,6.828,15.156,6.828,14.268L6.828,4.968L5.256,4.968ZM8.136,8.123999999999999C9.096,9.888,10.008,12.156,10.248,13.62L11.832,12.996C11.52,11.484,10.536,9.3,9.552,7.596L8.136,8.123999999999999ZM2.112,7.728C1.86,9.3,1.236,11.4,0.264,12.624C0.66,12.792,1.32,13.128,1.68,13.38C2.688,12.048,3.336,9.804,3.744,8.004L2.112,7.728ZM18.24,4.992L18.24,7.236C17.568,7.464,16.884,7.668,16.212,7.848C16.404,8.148,16.632,8.652000000000001,16.716,8.988C17.22,8.856,17.724,8.712,18.24,8.568L18.24,8.975999999999999C18.24,10.296,18.612,10.692,20.04,10.692C20.34,10.692,21.48,10.692,21.78,10.692C22.932,10.692,23.316,10.26,23.46,8.772C23.076,8.676,22.5,8.46,22.2,8.244C22.14,9.264,22.056,9.468,21.66,9.468C21.396,9.468,20.46,9.468,20.244,9.468C19.764,9.468,19.692,9.408,19.692,8.964L19.692,8.1C20.964,7.644,22.176,7.128,23.172,6.504L22.152,5.376C21.492,5.844,20.64,6.276,19.692,6.684L19.692,4.992L18.24,4.992ZM15.636,4.776C14.892,6.012,13.62,7.2,12.348,7.932C12.648,8.184000000000001,13.152,8.748000000000001,13.38,9.024C13.728,8.783999999999999,14.088,8.52,14.436,8.208L14.436,10.968L15.864,10.968L15.864,6.78C16.284,6.288,16.668,5.772,16.992,5.256L15.636,4.776ZM12.552,12.288L12.552,13.668L17.232,13.668L17.232,16.08L18.768,16.08L18.768,13.668L23.484,13.668L23.484,12.288L18.768,12.288L18.768,10.944L17.232,10.944L17.232,12.288L12.552,12.288ZM26.988,7.584L26.988,8.796L33,8.796L33,7.584L26.988,7.584ZM28.872,10.896L31.128,10.896L31.128,12.564L28.872,12.564L28.872,10.896ZM27.552,9.708L27.552,14.556L28.872,14.556L28.872,13.752L32.46,13.752L32.46,9.708L27.552,9.708ZM24.9,5.376L24.9,16.08L26.304,16.08L26.304,6.732L33.708,6.732L33.708,14.412C33.708,14.604,33.636,14.676,33.42,14.688C33.216,14.7,32.52,14.7,31.884,14.664C32.1,15.036,32.316,15.696,32.376,16.08C33.384,16.092,34.044,16.044,34.512,15.816C34.968,15.588,35.124,15.168,35.124,14.424L35.124,5.376L24.9,5.376ZM41.232,10.848L41.232,11.604L36.648,11.604L36.648,12.924L41.232,12.924L41.232,14.436C41.232,14.592,41.172,14.652,40.932,14.652C40.68,14.664,39.792,14.664,39.024,14.628C39.24,15.012,39.516,15.612,39.612,16.02C40.632,16.02,41.388,15.996,41.952,15.792C42.528,15.588,42.708,15.216,42.708,14.472L42.708,12.924L47.388,12.924L47.388,11.604L42.708,11.604L42.708,11.376C43.74,10.884,44.712,10.224,45.444,9.552L44.532,8.832L44.232,8.904L38.796,8.904L38.796,10.152L42.6,10.152C42.168,10.416,41.688,10.668,41.232,10.848ZM40.908,5.172C41.208,5.64,41.52,6.24,41.688,6.708L39.66,6.708L40.116,6.492C39.924,6.036,39.444,5.388,39.024,4.92L37.8,5.46C38.1,5.832,38.424,6.3,38.64,6.708L36.804,6.708L36.804,9.36L38.148,9.36L38.148,7.98L45.84,7.98L45.84,9.36L47.256,9.36L47.256,6.708L45.504,6.708C45.84,6.288,46.188,5.808,46.512,5.34L45.024,4.884C44.784,5.436,44.376,6.144,43.992,6.708L42.42,6.708L43.128,6.432C42.972,5.94,42.576,5.22,42.18,4.692L40.908,5.172Z" fill="#FFFFFF" fill-opacity="1"/></g><g><path d="M1.035,23L1.8405,23L1.8405,20.318L2.7495,20.318L2.7495,19.6475L0.1305,19.6475L0.1305,20.318L1.035,20.318L1.035,23ZM3.042,23L5.2155,23L5.2155,22.325L3.8475,22.325L3.8475,21.614L4.968,21.614L4.968,20.939L3.8475,20.939L3.8475,20.318L5.166,20.318L5.166,19.6475L3.042,19.6475L3.042,23ZM7.0695,23.063C7.506,23.063,7.8795,22.8965,8.163,22.567999999999998L7.74,22.064C7.5825,22.235,7.371,22.37,7.101,22.37C6.6285,22.37,6.3225,21.983,6.3225,21.317C6.3225,20.6645,6.678,20.2775,7.11,20.2775C7.3485,20.2775,7.524,20.3855,7.695,20.5385L8.1135,20.0255C7.884,19.7915,7.533,19.589,7.0965,19.589C6.246,19.589,5.499,20.228,5.499,21.344C5.499,22.478,6.219,23.063,7.0695,23.063ZM8.4285,23L9.234,23L9.234,21.623L10.3365,21.623L10.3365,23L11.1375,23L11.1375,19.6475L10.3365,19.6475L10.3365,20.9255L9.234,20.9255L9.234,19.6475L8.4285,19.6475L8.4285,23ZM11.6865,23L12.4515,23L12.4515,21.8885C12.4515,21.4835,12.384,21.0245,12.348,20.651L12.3705,20.651L12.699,21.3845L13.527,23L14.346,23L14.346,19.6475L13.581,19.6475L13.581,20.759C13.581,21.1595,13.6485,21.641,13.689,21.9965L13.6665,21.9965L13.338,21.254L12.5055,19.6475L11.6865,19.6475L11.6865,23ZM16.281,23.063C17.1945,23.063,17.8155,22.406,17.8155,21.308C17.8155,20.2145,17.1945,19.589,16.281,19.589C15.3675,19.589,14.7465,20.21,14.7465,21.308C14.7465,22.406,15.3675,23.063,16.281,23.063ZM16.281,22.37C15.84,22.37,15.57,21.956,15.57,21.308C15.57,20.66,15.84,20.2775,16.281,20.2775C16.722,20.2775,16.9965,20.66,16.9965,21.308C16.9965,21.956,16.722,22.37,16.281,22.37ZM18.2115,23L20.322,23L20.322,22.325L19.017,22.325L19.017,19.6475L18.2115,19.6475L18.2115,23ZM21.8655,23.063C22.779,23.063,23.4,22.406,23.4,21.308C23.4,20.2145,22.779,19.589,21.8655,19.589C20.952,19.589,20.331,20.21,20.331,21.308C20.331,22.406,20.952,23.063,21.8655,23.063ZM21.8655,22.37C21.4245,22.37,21.1545,21.956,21.1545,21.308C21.1545,20.66,21.4245,20.2775,21.8655,20.2775C22.3065,20.2775,22.581,20.66,22.581,21.308C22.581,21.956,22.3065,22.37,21.8655,22.37ZM25.3035,23.063C25.7715,23.063,26.1855,22.8785,26.4195,22.6535L26.4195,21.0875L25.173,21.0875L25.173,21.7445L25.704,21.7445L25.704,22.2845C25.632,22.3385,25.506,22.37,25.389,22.37C24.7635,22.37,24.4665,21.983,24.4665,21.317C24.4665,20.6645,24.822,20.2775,25.317,20.2775C25.596,20.2775,25.7715,20.39,25.938,20.5385L26.361,20.0255C26.1315,19.796,25.7805,19.589,25.29,19.589C24.3945,19.589,23.643,20.228,23.643,21.344C23.643,22.478,24.3765,23.063,25.3035,23.063ZM27.45,23L28.251,23L28.251,21.8165L29.2635,19.6475L28.422,19.6475L28.143,20.3945C28.0485,20.6465,27.9585,20.8805,27.864,21.1415L27.846,21.1415C27.7515,20.8805,27.666,20.6465,27.576,20.3945L27.297,19.6475L26.442,19.6475L27.45,21.8165L27.45,23ZM31.0545,23.063C31.473,23.063,31.8285,22.937,32.112,22.73C32.4045,22.892,32.706,23.0135,32.9895,23.063L33.1785,22.415C33.012,22.3925,32.814,22.316,32.6025,22.2125C32.859,21.8705,33.039,21.497,33.1605,21.092L32.4315,21.092C32.3505,21.398,32.22,21.659,32.0535,21.875C31.8195,21.704,31.5945,21.506,31.41,21.3035C31.761,21.0695,32.103,20.799500000000002,32.103,20.3585C32.103,19.8905,31.77,19.589,31.257,19.589C30.6855,19.589,30.3255,19.994,30.3255,20.471C30.3255,20.6825,30.402,20.9165,30.528,21.1595C30.204,21.362000000000002,29.9205,21.632,29.9205,22.1C29.9205,22.6085,30.303,23.063,31.0545,23.063ZM31.545,22.3385C31.4145,22.4105,31.284,22.451,31.1535,22.451C30.8655,22.451,30.681,22.289,30.681,22.0505C30.681,21.911,30.762,21.794,30.879,21.6815C31.0725,21.9155,31.2975,22.1405,31.545,22.3385ZM31.086,20.849C31.0185,20.714,30.9825,20.588,30.9825,20.471C30.9825,20.246,31.113,20.111,31.275,20.111C31.419,20.111,31.491,20.2055,31.491,20.3585C31.491,20.57,31.32,20.714,31.086,20.849ZM34.245,23L35.0505,23L35.0505,19.6475L34.245,19.6475L34.245,23ZM35.595,23L36.36,23L36.36,21.8885C36.36,21.4835,36.2925,21.0245,36.2565,20.651L36.279,20.651L36.6075,21.3845L37.4355,23L38.2545,23L38.2545,19.6475L37.4895,19.6475L37.4895,20.759C37.4895,21.1595,37.557,21.641,37.5975,21.9965L37.575,21.9965L37.2465,21.254L36.414,19.6475L35.595,19.6475L35.595,23ZM38.808,23L39.573,23L39.573,21.8885C39.573,21.4835,39.5055,21.0245,39.4695,20.651L39.492,20.651L39.8205,21.3845L40.6485,23L41.4675,23L41.4675,19.6475L40.7025,19.6475L40.7025,20.759C40.7025,21.1595,40.77,21.641,40.8105,21.9965L40.788,21.9965L40.4595,21.254L39.627,19.6475L38.808,19.6475L38.808,23ZM43.4025,23.063C44.316,23.063,44.937,22.406,44.937,21.308C44.937,20.2145,44.316,19.589,43.4025,19.589C42.489,19.589,41.868,20.21,41.868,21.308C41.868,22.406,42.489,23.063,43.4025,23.063ZM43.4025,22.37C42.9615,22.37,42.6915,21.956,42.6915,21.308C42.6915,20.66,42.9615,20.2775,43.4025,20.2775C43.8435,20.2775,44.118,20.66,44.118,21.308C44.118,21.956,43.8435,22.37,43.4025,22.37ZM45.855,23L46.8225,23L47.826,19.6475L47.007,19.6475L46.629,21.177500000000002C46.5345,21.5375,46.467,21.8795,46.368,22.2485L46.3455,22.2485C46.251,21.8795,46.1835,21.5375,46.0845,21.177500000000002L45.702,19.6475L44.8515,19.6475L45.855,23ZM47.4255,23L48.2445,23L48.438,22.2305L49.428,22.2305L49.6215,23L50.4675,23L49.428,19.6475L48.465,19.6475L47.4255,23ZM48.591,21.6095L48.663,21.326C48.7485,20.993,48.8385,20.6015,48.9195,20.2505L48.9375,20.2505C49.0275,20.5925,49.113,20.993,49.203,21.326L49.275,21.6095L48.591,21.6095ZM50.8545,23L51.66,23L51.66,20.318L52.569,20.318L52.569,19.6475L49.95,19.6475L49.95,20.318L50.8545,20.318L50.8545,23ZM52.8615,23L53.667,23L53.667,19.6475L52.8615,19.6475L52.8615,23ZM55.593,23.063C56.5065,23.063,57.1275,22.406,57.1275,21.308C57.1275,20.2145,56.5065,19.589,55.593,19.589C54.6795,19.589,54.0585,20.21,54.0585,21.308C54.0585,22.406,54.6795,23.063,55.593,23.063ZM55.593,22.37C55.152,22.37,54.882,21.956,54.882,21.308C54.882,20.66,55.152,20.2775,55.593,20.2775C56.034,20.2775,56.3085,20.66,56.3085,21.308C56.3085,21.956,56.034,22.37,55.593,22.37ZM57.5235,23L58.2885,23L58.2885,21.8885C58.2885,21.4835,58.221,21.0245,58.185,20.651L58.2075,20.651L58.536,21.3845L59.364,23L60.183,23L60.183,19.6475L59.418,19.6475L59.418,20.759C59.418,21.1595,59.4855,21.641,59.526,21.9965L59.5035,21.9965L59.175,21.254L58.3425,19.6475L57.5235,19.6475L57.5235,23Z" fill="#FFFFFF" fill-opacity="0.7200000286102295"/></g></g><g><g><path d="M48.952,14L50.752,14L51.376,11.72L54.244,11.72L54.868,14L56.74,14L53.896,5.108L51.796,5.108L48.952,14ZM51.76,10.34L52.024,9.368C52.288,8.444,52.54,7.436,52.78,6.464L52.828,6.464C53.092,7.412,53.332,8.444,53.608,9.368L53.872,10.34L51.76,10.34ZM58.263999999999996,14L60.04,14L60.04,5.108L58.263999999999996,5.108L58.263999999999996,14Z" fill="url(#master_svg0_37_07598)" fill-opacity="1"/></g><g><rect x="49" y="15" width="11" height="1" rx="0.5" fill="#297CF0" fill-opacity="1"/></g></g></g></svg>